HIERARCHY
ROOT ROOT
{
	OFFSET 0.000000 56.020000 -5.659234
	CHANNELS 6 Xposition Yposition Zposition Xrotation Yrotation Zrotation 
	JOINT C_spine0001_bind_JNT
	{
		OFFSET 0.000000 1.618999 0.000000
		CHANNELS 3 Xrotation Yrotation Zrotation
		JOINT C_spine0002_bind_JNT
		{
			OFFSET 0.000000 4.942001 0.000001
			CHANNELS 3 Xrotation Yrotation Zrotation
			JOINT C_spine0003_bind_JNT
			{
				OFFSET 0.000000 4.942001 -0.000000
				CHANNELS 3 Xrotation Yrotation Zrotation
				JOINT C_neck0001_bind_JNT
				{
					OFFSET 0.000000 17.026009 -0.000000
					CHANNELS 3 Xrotation Yrotation Zrotation
					JOINT C_neck0002_bind_JNT
					{
						OFFSET 0.000000 3.249985 0.000000
						CHANNELS 3 Xrotation Yrotation Zrotation
						JOINT C_head_bind_JNT
						{
							OFFSET 0.000000 5.278008 0.000000
							CHANNELS 3 Xrotation Yrotation Zrotation
							End Site
							{
								OFFSET 0.000000 0.000000 0.000000
							}
						}
					}
				}
				JOINT L_clavicle_bind_JNT
				{
					OFFSET 4.590000 12.067001 0.834000
					CHANNELS 3 Xrotation Yrotation Zrotation
					JOINT L_armUpper0001_bind_JNT
					{
						OFFSET 7.812635 0.512001 -3.452945
						CHANNELS 3 Xrotation Yrotation Zrotation
						JOINT L_armLower0001_bind_JNT
						{
							OFFSET 15.265892 -6.552116 -0.058157
							CHANNELS 3 Xrotation Yrotation Zrotation
							JOINT L_hand0001_bind_JNT
							{
								OFFSET 14.747667 -6.369995 5.049225
								CHANNELS 3 Xrotation Yrotation Zrotation
								End Site
								{
									OFFSET 0.000000 0.000000 0.000000
								}
							}
						}
					}
				}
				JOINT R_clavicle_bind_JNT
				{
					OFFSET -4.590000 12.067001 0.834000
					CHANNELS 3 Xrotation Yrotation Zrotation
					JOINT R_armUpper0001_bind_JNT
					{
						OFFSET -7.812635 0.512001 -3.452945
						CHANNELS 3 Xrotation Yrotation Zrotation
						JOINT R_armLower0001_bind_JNT
						{
							OFFSET -15.265890 -6.552124 -0.058160
							CHANNELS 3 Xrotation Yrotation Zrotation
							JOINT R_hand0001_bind_JNT
							{
								OFFSET -14.746784 -6.369629 5.048937
								CHANNELS 3 Xrotation Yrotation Zrotation
								End Site
								{
									OFFSET 0.000000 0.000000 0.000000
								}
							}
						}
					}
				}
			}
		}
	}
	JOINT C_pelvis0001_bind_JNT
	{
		OFFSET -0.000000 0.000000 0.000000
		CHANNELS 3 Xrotation Yrotation Zrotation
		JOINT L_legUpper0001_bind_JNT
		{
			OFFSET 6.599999 -6.027000 0.539000
			CHANNELS 3 Xrotation Yrotation Zrotation
			JOINT L_legLower0001_bind_JNT
			{
				OFFSET -0.140713 -19.187443 0.040261
				CHANNELS 3 Xrotation Yrotation Zrotation
				JOINT L_foot0001_bind_JNT
				{
					OFFSET -0.132215 -18.028637 -1.138370
					CHANNELS 3 Xrotation Yrotation Zrotation
					JOINT L_foot0002_bind_JNT
					{
						OFFSET 0.007014 -4.693133 9.886524
						CHANNELS 3 Xrotation Yrotation Zrotation
						End Site
						{
							OFFSET 0.000000 0.000000 0.000000
						}
					}
				}
			}
		}
		JOINT R_legUpper0001_bind_JNT
		{
			OFFSET -6.599999 -6.027000 0.539000
			CHANNELS 3 Xrotation Yrotation Zrotation
			JOINT R_legLower0001_bind_JNT
			{
				OFFSET 0.140710 -19.187164 0.040550
				CHANNELS 3 Xrotation Yrotation Zrotation
				JOINT R_foot0001_bind_JNT
				{
					OFFSET 0.132215 -18.028633 -1.138362
					CHANNELS 3 Xrotation Yrotation Zrotation
					JOINT R_foot0002_bind_JNT
					{
						OFFSET -0.007014 -4.693128 9.886505
						CHANNELS 3 Xrotation Yrotation Zrotation
						End Site
						{
							OFFSET 0.000000 0.000000 0.000000
						}
					}
				}
			}
		}
	}
}
MOTION
Frames: 13
Frame Time: 0.033333
5.720251 43.121777 21.967199 0.032709 -11.663458 -0.039459 19.241571 10.300200 3.404679 -2.761428 -2.243758 2.751284 7.853418 -1.336695 3.147568 23.334276 -1.247180 -2.284674 -0.125466 -0.582860 -0.502844 5.301803 -2.750170 -4.153815 0.253911 11.142881 10.767411 -13.910481 12.203312 -47.334808 -28.640997 2.388384 -6.062061 -12.406780 -20.058128 -7.325817 4.194531 -12.647969 -8.030421 -18.536228 -12.848693 49.046947 -23.015501 -0.051991 8.515068 -7.292227 22.868521 15.540195 16.168091 14.196671 -1.957454 -31.245317 -0.412985 -9.894972 59.817818 1.363599 -6.593224 -25.401844 -3.753791 5.801792 -14.420395 -1.998378 5.764033 -58.587292 -4.924842 0.932734 55.723434 -0.704030 -0.086277 -9.634399 5.767514 -3.880372 -3.133801 0.894098 -1.428642 
5.707381 43.307484 22.763376 0.045333 -11.569807 -0.032859 19.121939 9.694801 3.541451 -2.568021 -2.279247 2.792436 7.811426 -1.447107 3.282531 23.382170 -1.099357 -2.463964 -0.176531 -0.621343 -0.484519 5.434367 -2.686324 -4.298394 0.345100 11.273262 10.718360 -13.539787 12.539897 -47.602573 -28.335173 2.372329 -5.616423 -12.557727 -19.991495 -7.495830 3.978487 -12.495291 -8.056480 -18.483444 -12.884270 49.171139 -23.188179 1.170938 9.610112 -7.480563 22.726946 15.624614 16.219400 13.533132 -1.853540 -32.093697 -0.631101 -9.343143 61.250202 1.635923 -6.962950 -23.110245 -3.934669 4.272746 -16.705887 -2.040536 6.110226 -57.752602 -4.823364 1.397191 56.308483 -0.485748 -0.147125 -11.028891 5.896524 -4.058224 -3.135847 0.725637 -1.340480 
5.702227 43.428921 23.556183 0.026954 -11.608676 -0.032545 19.268934 9.195282 3.563606 -2.739353 -2.180633 2.720336 7.800690 -1.368572 3.294383 23.594769 -1.150826 -2.483486 -0.203861 -0.578148 -0.478180 5.626813 -2.625321 -4.585855 0.430792 11.026916 10.834555 -13.259965 12.897239 -47.800205 -27.945072 2.498516 -5.428222 -12.664439 -19.687111 -7.554146 3.811959 -12.663285 -7.914120 -18.693960 -12.433456 48.936241 -23.215605 2.286479 10.524061 -7.468048 22.893852 15.446308 16.239157 12.938890 -1.996086 -33.782196 -0.874640 -8.476110 63.721596 1.885668 -7.343518 -19.894077 -4.421430 2.337880 -18.552803 -2.519860 7.410690 -56.978462 -4.896451 1.926934 57.138130 -0.004728 -0.472740 -12.518630 5.662299 -3.977525 -3.290749 0.952713 -1.533075 
5.627578 43.581730 24.423983 0.044162 -11.848460 -0.035447 19.018761 8.814830 3.299497 -2.550353 -2.156533 2.772138 7.756714 -1.341402 3.211451 23.729010 -1.061155 -2.487783 -0.251781 -0.555195 -0.612407 5.835822 -2.583644 -4.374001 0.543728 11.276397 11.037907 -12.941777 12.975145 -48.285118 -27.568274 2.998754 -4.779235 -12.508924 -19.660873 -7.889665 3.498518 -12.639710 -8.168584 -18.953865 -12.518214 48.541786 -22.782835 3.365895 11.704885 -7.437205 23.102467 15.358014 16.107939 12.318809 -2.139307 -35.645859 -0.808552 -7.295047 66.449135 1.932655 -7.176313 -16.847401 -4.640353 0.902400 -18.466316 -2.118224 7.167269 -55.415230 -5.202117 2.794832 57.072735 0.764947 -0.740145 -13.608170 5.563165 -4.569532 -3.432329 0.906521 -1.455073 
5.599918 43.699833 25.198517 0.026674 -11.885151 -0.035071 19.143105 8.505009 2.996915 -2.528109 -2.073549 2.705207 7.769017 -1.242773 3.194722 23.793779 -1.208224 -2.440571 -0.337549 -0.533168 -0.390678 6.134315 -2.421665 -4.465289 0.501777 10.966693 11.312050 -12.575541 13.234001 -48.575130 -27.290747 3.900164 -4.709476 -12.800059 -19.572660 -8.247652 3.223301 -12.803432 -8.315698 -19.365225 -12.012991 48.263187 -22.757965 4.568483 12.474033 -7.325345 23.277142 15.208003 15.997141 11.729055 -2.455081 -37.870361 -0.528534 -5.996704 69.391914 1.885440 -6.825466 -14.656277 -5.458227 -0.668297 -15.738425 -1.793756 6.982179 -54.222542 -5.255446 3.581780 57.523808 1.222887 -1.043812 -15.035701 5.653487 -4.578698 -3.292438 0.891639 -1.620006 
5.556425 43.862804 25.924459 0.040235 -12.192821 -0.036646 19.241125 8.357577 2.604711 -2.445860 -1.955044 2.537030 7.841559 -1.314416 3.017600 23.753475 -0.956102 -2.455906 -0.215826 -0.557344 -0.546646 6.035943 -2.304572 -4.204613 0.328299 11.064387 11.650626 -12.159603 13.034278 -49.099270 -27.101686 5.136877 -4.248857 -12.745577 -19.812357 -8.406745 2.737515 -12.717452 -8.407876 -19.799120 -11.801289 47.909515 -22.495438 5.706563 13.062019 -7.796327 23.279238 15.126105 16.093498 11.347669 -2.529860 -40.691124 -0.346962 -5.009489 72.078842 1.401767 -6.190361 -12.700047 -5.556434 -1.265233 -12.985888 -1.145742 5.056004 -53.011387 -5.549995 4.147681 57.088379 2.019719 -1.599104 -15.589748 5.762192 -4.865495 -3.440968 0.937657 -1.539107 
5.551219 44.064377 26.618351 0.031760 -12.200910 -0.036588 19.242344 8.082350 2.135773 -2.378877 -1.843698 2.455168 7.788655 -1.128516 2.955467 23.895315 -1.079544 -2.438250 -0.323927 -0.555438 -0.490713 6.094305 -1.892803 -4.023178 0.480148 10.722214 11.779271 -11.781504 13.253869 -49.308395 -26.830362 6.394135 -4.056737 -13.058625 -19.819216 -8.884357 2.393256 -12.915428 -8.303618 -20.127382 -11.170956 47.361286 -22.602571 6.929617 13.751452 -7.522549 23.126028 14.646597 15.722648 10.906302 -2.503630 -43.105923 -0.117239 -4.016723 74.115852 1.022810 -5.771513 -11.480351 -5.410453 -1.495106 -9.784167 -0.736185 3.446995 -51.620625 -5.590163 4.568144 57.010117 2.343616 -2.127739 -16.281105 5.989128 -4.868428 -3.440191 1.014236 -1.490977 
5.527756 44.281563 27.423086 0.038304 -12.388208 -0.043318 18.935377 7.690469 1.541551 -2.229000 -1.589670 2.160344 7.811707 -0.959124 2.664438 23.841055 -0.874384 -2.319484 -0.292733 -0.583314 -0.291520 6.100899 -1.791198 -3.779880 0.400740 10.598043 12.233291 -11.149027 13.165715 -49.846500 -26.814072 7.988932 -3.607528 -12.957003 -20.011484 -9.359881 1.943365 -12.679658 -8.102771 -20.532278 -10.934832 46.727837 -21.910727 7.805581 13.860934 -7.815578 22.779329 14.490216 15.211971 10.345453 -2.232673 -46.046848 -0.031566 -3.195819 76.025520 0.650119 -4.795854 -10.034247 -5.269191 -0.861339 -7.574742 -0.670875 1.870407 -49.408833 -5.603133 4.856492 55.927914 2.977962 -2.584633 -16.672655 6.105918 -5.173819 -3.466028 0.954019 -1.527234 
5.576061 44.524918 28.306240 0.036177 -12.535665 -0.023944 18.785025 7.730722 0.981970 -2.286061 -1.422644 1.888107 7.918219 -0.650003 2.549149 23.759216 -1.055578 -2.137393 -0.228341 -0.586376 -0.470451 6.016378 -1.433171 -3.374346 0.582202 10.132489 12.365080 -10.520823 13.650490 -50.213516 -26.658554 9.515012 -3.605348 -13.055000 -20.207531 -10.249491 1.783731 -12.646770 -8.158734 -20.991959 -10.679482 46.125652 -22.048449 8.646331 14.328491 -7.525593 22.522923 14.384101 14.839215 10.037693 -1.920304 -48.519703 -0.012726 -2.545060 76.629219 0.306564 -4.465417 -9.518031 -5.724920 0.568417 -6.565052 -0.771792 1.454329 -47.546688 -5.270998 4.949984 55.789909 3.156749 -3.049144 -17.438564 6.112904 -5.028679 -3.861677 1.068175 -1.559308 
5.503211 44.716541 29.063950 0.040652 -12.784760 -0.032297 18.438700 7.805351 0.257346 -2.051845 -1.062285 1.639843 7.941247 -0.453907 2.278824 23.663952 -0.915087 -2.007008 -0.205645 -0.476436 -0.338990 5.762158 -1.229166 -3.036538 0.493453 9.760865 12.838102 -9.682413 13.533162 -51.083179 -26.986435 10.941389 -3.454836 -13.011699 -19.934807 -10.875107 1.469315 -12.386463 -7.989451 -21.276123 -10.669288 45.619396 -21.643940 9.815603 14.480721 -7.852027 22.170355 13.876549 14.351260 9.969565 -1.724647 -51.730644 -0.384984 -1.768438 76.090530 0.025261 -3.282209 -8.136737 -5.929135 0.983408 -5.835901 -1.071037 1.280235 -45.497295 -4.936529 5.076855 55.019970 3.232889 -2.881341 -18.026794 6.148514 -5.560657 -3.956199 0.886237 -1.534877 
5.498616 44.898399 29.928736 0.038320 -12.680348 -0.032214 18.262127 7.775699 -0.426472 -2.028279 -0.917327 1.344866 7.771258 -0.124658 2.166778 23.679129 -0.844224 -1.899087 -0.244904 -0.395208 -0.315223 5.606222 -0.941322 -2.774324 0.541186 9.274282 13.099644 -9.082059 13.943876 -51.350712 -26.878721 12.100394 -3.433223 -13.353684 -19.778662 -11.721661 1.307852 -12.220216 -7.895023 -21.532349 -10.507793 44.886997 -21.681967 10.353815 14.827784 -7.557778 21.902437 13.730516 13.930184 9.686555 -1.519578 -53.723034 -0.590769 -1.052016 73.697220 -0.193098 -2.606074 -7.429988 -6.184087 1.234500 -5.129466 -1.322088 1.055199 -43.745129 -4.647130 5.102094 55.110023 3.068621 -2.884703 -19.089758 5.900943 -5.572541 -4.284909 1.093366 -1.454540 
5.456712 45.010418 30.795858 0.032029 -12.668463 -0.027050 17.743404 7.718807 -1.185893 -1.987400 -0.536160 1.019154 7.837896 0.032133 2.068817 23.570335 -0.805027 -1.800216 -0.139058 -0.325789 -0.242855 5.642628 -0.603707 -2.387646 0.704906 9.028717 13.446884 -8.456775 14.300769 -52.095608 -27.010180 13.119276 -3.477101 -13.135566 -19.458128 -12.184553 1.181332 -12.089907 -7.885299 -21.801781 -10.263186 44.587528 -21.187311 11.161546 14.553809 -7.819564 21.353113 13.267561 13.329887 9.447790 -1.555058 -55.771786 -0.933119 -0.235766 69.920006 -0.281119 -1.703463 -5.395945 -6.665775 1.146075 -4.301398 -1.657310 0.761590 -41.833363 -4.326554 5.396951 55.090775 3.038570 -2.757434 -20.212652 5.811650 -5.679966 -4.350043 0.955932 -1.467322 
5.421893 45.057808 31.800362 0.036808 -12.307360 -0.027259 17.443293 7.710610 -1.806740 -1.908317 -0.496779 0.810804 7.763980 0.223606 1.855614 23.534315 -0.752437 -1.595365 -0.161042 -0.126685 -0.368516 5.591350 -0.620438 -2.239187 0.908486 8.976480 13.484293 -8.220494 14.771883 -52.265755 -26.821833 14.205287 -3.732560 -13.045276 -19.566362 -12.828925 1.414765 -12.155063 -7.893689 -22.306250 -9.834257 44.176853 -21.090916 11.467845 14.804154 -7.428650 21.230213 12.818912 13.075848 9.155041 -1.417402 -56.969749 -0.943848 -0.027335 64.862694 -0.269623 -1.271895 -3.425484 -7.087954 1.512813 -4.078041 -1.652587 0.298027 -40.011280 -4.087632 5.434886 55.008465 2.848219 -2.497993 -21.441998 5.480148 -5.889918 -4.639001 1.097188 -1.424142 
